<svg width="20" height="16" viewBox="0 0 20 16" fill="none" xmlns="http://www.w3.org/2000/svg">
<path d="M18.1818 0.454545C17.1727 0.136364 16.0636 0 15 0C13.2273 0 11.3182 0.363636 10 1.36364C8.68182 0.363636 6.77273 0 5 0C3.22727 0 1.31818 0.363636 0 1.36364V14.6818C0 14.9091 0.227273 15.1364 0.454545 15.1364C0.545455 15.1364 0.590909 15.0909 0.681818 15.0909C1.90909 14.5 3.68182 14.0909 5 14.0909C6.77273 14.0909 8.68182 14.4545 10 15.4545C11.2273 14.6818 13.4545 14.0909 15 14.0909C16.5 14.0909 18.0455 14.3636 19.3182 15.0455C19.4091 15.0909 19.4545 15.0909 19.5455 15.0909C19.7727 15.0909 20 14.8636 20 14.6364V1.36364C19.4545 0.954545 18.8636 0.681818 18.1818 0.454545ZM18.1818 12.7273C17.1818 12.4091 16.0909 12.2727 15 12.2727C13.4545 12.2727 11.2273 12.8636 10 13.6364V3.18182C11.2273 2.40909 13.4545 1.81818 15 1.81818C16.0909 1.81818 17.1818 1.95455 18.1818 2.27273V12.7273Z" fill="#989898"/>
<path d="M15.0001 5.45446C15.8001 5.45446 16.5728 5.53628 17.2728 5.69082V4.309C16.5546 4.17264 15.7819 4.09082 15.0001 4.09082C13.4546 4.09082 12.0546 4.35446 10.9092 4.84537V6.35446C11.9365 5.77264 13.3637 5.45446 15.0001 5.45446Z" fill="#989898"/>
<path d="M10.9092 7.26382V8.77291C11.9365 8.1911 13.3637 7.87291 15.0001 7.87291C15.8001 7.87291 16.5728 7.95473 17.2728 8.10928V6.72746C16.5546 6.5911 15.7819 6.50928 15.0001 6.50928C13.4546 6.50928 12.0546 6.782 10.9092 7.26382Z" fill="#989898"/>
<path d="M15.0001 8.93652C13.4546 8.93652 12.0546 9.20016 10.9092 9.69107V11.2002C11.9365 10.6183 13.3637 10.3002 15.0001 10.3002C15.8001 10.3002 16.5728 10.382 17.2728 10.5365V9.15471C16.5546 9.00925 15.7819 8.93652 15.0001 8.93652Z" fill="#989898"/>
</svg>
