<svg width="18" height="16" viewBox="0 0 18 16" fill="none" xmlns="http://www.w3.org/2000/svg">
<path d="M17.8125 14.3636H1.6875V0.181818C1.6875 0.0818182 1.60312 0 1.5 0H0.1875C0.084375 0 0 0.0818182 0 0.181818V15.8182C0 15.9182 0.084375 16 0.1875 16H17.8125C17.9156 16 18 15.9182 18 15.8182V14.5455C18 14.4455 17.9156 14.3636 17.8125 14.3636ZM4.16719 10.8568C4.23984 10.9273 4.35703 10.9273 4.43203 10.8568L7.67344 7.72955L10.6641 10.6477C10.7367 10.7182 10.8562 10.7182 10.9289 10.6477L17.3836 4.39091C17.4563 4.32046 17.4563 4.20455 17.3836 4.13409L16.4555 3.23409C16.4202 3.20025 16.3726 3.18127 16.323 3.18127C16.2735 3.18127 16.2259 3.20025 16.1906 3.23409L10.8 8.45909L7.81406 5.54545C7.77882 5.51162 7.73123 5.49264 7.68164 5.49264C7.63205 5.49264 7.58446 5.51162 7.54922 5.54545L3.24141 9.69773C3.20651 9.7319 3.18694 9.77805 3.18694 9.82614C3.18694 9.87423 3.20651 9.92037 3.24141 9.95455L4.16719 10.8568Z" fill="#989898"/>
</svg>
